<svg xmlns="http://www.w3.org/2000/svg" xmlns:xlink="http://www.w3.org/1999/xlink" id="uuid-c99313a3-f833-47b3-8a41-5abd0a31e409" width="3294.9" height="2425.68" viewBox="0 0 3294.9 2425.68"><defs><clipPath id="uuid-d6dc7759-50f7-461c-80b4-7a766b90f3d8"><path d="m2842.69,860.07h-25.53v.13l-22.92,15.61c-55.97,38.11-102.79,61.33-166.5,73.44l-36.31,6.9-2.95,44.24c-12.91,193.68,69.17,389.81,223.42,508.9h29.83v-16.58l1.43-.93c130.93-101.08,215.2-304.01,202.7-491.39l-2.92-43.83-35.92-7.23c-62.97-12.68-109.19-34.52-164.31-71.75v-17.5Z" style="fill:none; stroke-width:0px;"></path></clipPath><linearGradient id="uuid-fd0ba693-6b61-4277-b7cf-87c6df30b019" x1="2585.74" y1="1771.37" x2="2878.25" y2="1029.15" gradientUnits="userSpaceOnUse"><stop offset="0" stop-color="#ea6200"></stop><stop offset="1" stop-color="#ffc045"></stop></linearGradient><clipPath id="uuid-3a410406-401c-47c4-a54d-ed28b6c6527e"><path d="m2688.14,1017.03c-2.65,66.98,7.63,134.6,26.98,196.66,27.6,88.49,75.78,171.87,137.78,225.36,62-53.49,110.18-136.87,137.78-225.36,19.36-62.09,29.65-129.76,26.98-196.77-28.42-6.65-56.09-15.75-83.31-28.66-28.29-13.42-55.14-30.45-81.44-49.25-27.62,19.74-55.85,37.59-85.64,51.41-25.86,11.99-52.14,20.55-79.12,26.61" style="fill:none; stroke-width:0px;"></path></clipPath><linearGradient id="uuid-e885f993-f176-44ac-a2d0-fd81e9598648" x1="2665.69" y1="1632.03" x2="2902.51" y2="1071.66" xlink:href="#uuid-fd0ba693-6b61-4277-b7cf-87c6df30b019"></linearGradient><clipPath id="uuid-3074fdf1-79bf-41bb-9a70-26228f7e6d77"><path d="m2688.14,1017.03c-2.65,66.98,7.63,134.6,26.98,196.66,27.6,88.49,75.78,171.87,137.78,225.36h0v-500.04c-27.62,19.74-55.85,37.59-85.64,51.41-25.86,11.99-52.14,20.55-79.12,26.61" style="fill:none; stroke-width:0px;"></path></clipPath><linearGradient id="uuid-a506718b-20f8-4a13-bbd7-7145a143d45c" x1="2622.94" y1="1385.01" x2="2872.41" y2="1050.73" xlink:href="#uuid-fd0ba693-6b61-4277-b7cf-87c6df30b019"></linearGradient><clipPath id="uuid-dda4f556-4efb-4a2a-bb1b-8567198074e1"><path d="m2852.9,961.53v453.49c55.26-51.35,98.35-127.87,123.55-208.68,17.06-54.7,26.81-113.92,26.27-173.01-25.04-6.54-49.66-15.15-73.68-26.55-26.3-12.48-51.54-28.07-76.14-45.26" style="fill:none; stroke-width:0px;"></path></clipPath><linearGradient id="uuid-5922aca8-2090-4b28-8682-9b3112d050d1" x1="2760.01" y1="1412.33" x2="3125.91" y2="924.53" xlink:href="#uuid-fd0ba693-6b61-4277-b7cf-87c6df30b019"></linearGradient></defs><g id="uuid-1f504812-ef39-4354-b23d-8ceac7ebbf83"><rect width="3294.9" height="2425.68" style="fill:#fff; stroke-width:0px;"></rect><path d="m906.65,684.46c107.44,0,209.67,22.22,302.42,62.25,166.56-328.53,507.48-553.71,901.02-553.71,557.6,0,1009.62,452.02,1009.62,1009.62s-452.02,1009.62-1009.62,1009.62H906.65c-421.88,0-763.89-342-763.89-763.89s342-763.89,763.89-763.89" style="fill:#eff3ff; fill-rule:evenodd; stroke-width:0px;"></path><path d="m459.6,801.41h1667.08c30.32,0,55.12,25.98,55.12,57.74v1072.9c0,31.76-24.8,57.74-55.12,57.74H459.6c-30.32,0-55.12-25.98-55.12-57.74V859.14c0-31.76,24.8-57.74,55.12-57.74" style="fill:#aec2fd; fill-rule:evenodd; stroke-width:0px;"></path><path d="m1168,1973.13c-6.46,130.32-23.56,163.27-142.07,237.54h525.34c-118.51-74.26-135.61-107.22-142.07-237.54l-120.6-10.59-120.6,10.59Z" style="fill:#aec2fd; fill-rule:evenodd; stroke-width:0px;"></path><path d="m455.08,868.88h1674.1c.69,0,1.25.59,1.25,1.32v949.76H453.84v-949.76c0-.73.56-1.32,1.25-1.32" style="fill:#fff; stroke-width:0px;"></path><path d="m1293.14,1868.84c21.66,0,39.21,17.55,39.21,39.21s-17.56,39.21-39.21,39.21-39.21-17.55-39.21-39.21,17.56-39.21,39.21-39.21" style="fill:#e7eff9; fill-rule:evenodd; stroke-width:0px;"></path><rect x="1163.83" y="1989.79" width="249.37" height="37.12" style="fill:#7183d5; stroke-width:0px;"></rect><path d="m453.81,855.3h1676.45c.1,0,.18.08.18.17v964.31c0,.1-.08.17-.18.17H453.81c-.1,0-.18-.08-.18-.17v-964.31c0-.1.08-.17.18-.17" style="fill:#355298; fill-rule:evenodd; stroke-width:0px;"></path><path d="m1141.56,1732.13h490.11c5.06,0,9.2-4.14,9.2-9.2s-4.14-9.2-9.2-9.2h-490.11c-5.06,0-9.2,4.14-9.2,9.2s4.14,9.2,9.2,9.2" style="fill:#eb6502; fill-rule:evenodd; stroke-width:0px;"></path><path d="m1088.66,1692.1h121.52c5.06,0,9.2-4.14,9.2-9.2s-4.14-9.2-9.2-9.2h-121.52c-5.06,0-9.2,4.14-9.2,9.2s4.14,9.2,9.2,9.2" style="fill:#fff; fill-rule:evenodd; stroke-width:0px;"></path><path d="m1141.56,1652.07h181.48c5.06,0,9.2-4.14,9.2-9.2s-4.14-9.2-9.2-9.2h-181.48c-5.06,0-9.2,4.14-9.2,9.2s4.14,9.2,9.2,9.2" style="fill:#fff; fill-rule:evenodd; stroke-width:0px;"></path><path d="m1142.15,1612.04h149.15c5.06,0,9.2-4.14,9.2-9.2s-4.14-9.2-9.2-9.2h-149.15c-5.06,0-9.2,4.14-9.2,9.2s4.14,9.2,9.2,9.2" style="fill:#fff; fill-rule:evenodd; stroke-width:0px;"></path><path d="m1142.15,1572.01h449.54c5.06,0,9.2-4.14,9.2-9.2s-4.14-9.2-9.2-9.2h-449.54c-5.06,0-9.2,4.14-9.2,9.2s4.14,9.2,9.2,9.2" style="fill:#fff; fill-rule:evenodd; stroke-width:0px;"></path><path d="m1377.3,1652.07h119.17c5.06,0,9.2-4.14,9.2-9.2s-4.14-9.2-9.2-9.2h-119.17c-5.06,0-9.2,4.14-9.2,9.2s4.14,9.2,9.2,9.2" style="fill:#fff; fill-rule:evenodd; stroke-width:0px;"></path><path d="m1332.91,1612.04h351.08c5.06,0,9.2-4.14,9.2-9.2s-4.14-9.2-9.2-9.2h-351.08c-5.06,0-9.2,4.14-9.2,9.2s4.14,9.2,9.2,9.2" style="fill:#eb6502; fill-rule:evenodd; stroke-width:0px;"></path><path d="m1735.01,1612.04h95.36c5.06,0,9.2-4.14,9.2-9.2s-4.14-9.2-9.2-9.2h-95.36c-5.06,0-9.2,4.14-9.2,9.2s4.14,9.2,9.2,9.2" style="fill:#6cd6ff; fill-rule:evenodd; stroke-width:0px;"></path><path d="m1877.86,1612.04h95.36c5.06,0,9.2-4.14,9.2-9.2s-4.14-9.2-9.2-9.2h-95.36c-5.06,0-9.2,4.14-9.2,9.2s4.14,9.2,9.2,9.2" style="fill:#ffca05; fill-rule:evenodd; stroke-width:0px;"></path><path d="m1088.66,1531.71h121.52c5.06,0,9.2-4.14,9.2-9.2s-4.14-9.2-9.2-9.2h-121.52c-5.06,0-9.2,4.14-9.2,9.2s4.14,9.2,9.2,9.2" style="fill:#fff; fill-rule:evenodd; stroke-width:0px;"></path><path d="m1141.56,1179.86h181.48c5.06,0,9.2-4.14,9.2-9.2s-4.14-9.2-9.2-9.2h-181.48c-5.06,0-9.2,4.14-9.2,9.2s4.14,9.2,9.2,9.2" style="fill:#fff; fill-rule:evenodd; stroke-width:0px;"></path><path d="m1142.15,1139.83h149.15c5.06,0,9.2-4.14,9.2-9.2s-4.14-9.2-9.2-9.2h-149.15c-5.06,0-9.2,4.14-9.2,9.2s4.14,9.2,9.2,9.2" style="fill:#fff; fill-rule:evenodd; stroke-width:0px;"></path><path d="m1142.15,1099.8h449.54c5.06,0,9.2-4.14,9.2-9.2s-4.14-9.2-9.2-9.2h-449.54c-5.06,0-9.2,4.14-9.2,9.2s4.14,9.2,9.2,9.2" style="fill:#6cd6ff; fill-rule:evenodd; stroke-width:0px;"></path><path d="m1377.3,1179.86h119.17c5.06,0,9.2-4.14,9.2-9.2s-4.14-9.2-9.2-9.2h-119.17c-5.06,0-9.2,4.14-9.2,9.2s4.14,9.2,9.2,9.2" style="fill:#fff; fill-rule:evenodd; stroke-width:0px;"></path><path d="m1332.91,1139.83h351.08c5.06,0,9.2-4.14,9.2-9.2s-4.14-9.2-9.2-9.2h-351.08c-5.06,0-9.2,4.14-9.2,9.2s4.14,9.2,9.2,9.2" style="fill:#c5579f; fill-rule:evenodd; stroke-width:0px;"></path><path d="m1735.01,1139.83h95.36c5.06,0,9.2-4.14,9.2-9.2s-4.14-9.2-9.2-9.2h-95.36c-5.06,0-9.2,4.14-9.2,9.2s4.14,9.2,9.2,9.2" style="fill:#ffca05; fill-rule:evenodd; stroke-width:0px;"></path><path d="m1877.86,1139.83h95.36c5.06,0,9.2-4.14,9.2-9.2s-4.14-9.2-9.2-9.2h-95.36c-5.06,0-9.2,4.14-9.2,9.2s4.14,9.2,9.2,9.2" style="fill:#fff; fill-rule:evenodd; stroke-width:0px;"></path><path d="m1144.5,1478.22h121.52c5.06,0,9.2-4.14,9.2-9.2s-4.14-9.2-9.2-9.2h-121.52c-5.06,0-9.2,4.14-9.2,9.2s4.14,9.2,9.2,9.2" style="fill:#fff; fill-rule:evenodd; stroke-width:0px;"></path><path d="m1141.56,1438.19h181.48c5.06,0,9.2-4.14,9.2-9.2s-4.14-9.2-9.2-9.2h-181.48c-5.06,0-9.2,4.14-9.2,9.2s4.14,9.2,9.2,9.2" style="fill:#fff; fill-rule:evenodd; stroke-width:0px;"></path><path d="m1142.15,1398.16h149.15c5.06,0,9.2-4.14,9.2-9.2s-4.14-9.2-9.2-9.2h-149.15c-5.06,0-9.2,4.14-9.2,9.2s4.14,9.2,9.2,9.2" style="fill:#fff; fill-rule:evenodd; stroke-width:0px;"></path><path d="m1142.15,1358.13h195.17c5.06,0,9.2-4.14,9.2-9.2s-4.14-9.2-9.2-9.2h-195.17c-5.06,0-9.2,4.14-9.2,9.2s4.14,9.2,9.2,9.2" style="fill:#ffca05; fill-rule:evenodd; stroke-width:0px;"></path><path d="m1377.3,1438.19h119.17c5.06,0,9.2-4.14,9.2-9.2s-4.14-9.2-9.2-9.2h-119.17c-5.06,0-9.2,4.14-9.2,9.2s4.14,9.2,9.2,9.2" style="fill:#fff; fill-rule:evenodd; stroke-width:0px;"></path><path d="m1332.91,1398.16h351.08c5.06,0,9.2-4.14,9.2-9.2s-4.14-9.2-9.2-9.2h-351.08c-5.06,0-9.2,4.14-9.2,9.2s4.14,9.2,9.2,9.2" style="fill:#f48120; fill-rule:evenodd; stroke-width:0px;"></path><path d="m1735.01,1398.16h95.36c5.06,0,9.2-4.14,9.2-9.2s-4.14-9.2-9.2-9.2h-95.36c-5.06,0-9.2,4.14-9.2,9.2s4.14,9.2,9.2,9.2" style="fill:#fff; fill-rule:evenodd; stroke-width:0px;"></path><path d="m1877.86,1398.16h95.36c5.06,0,9.2-4.14,9.2-9.2s-4.14-9.2-9.2-9.2h-95.36c-5.06,0-9.2,4.14-9.2,9.2s4.14,9.2,9.2,9.2" style="fill:#fff; fill-rule:evenodd; stroke-width:0px;"></path><path d="m1284.71,1058.38h351.08c5.06,0,9.2-4.14,9.2-9.2s-4.14-9.2-9.2-9.2h-351.08c-5.06,0-9.2,4.14-9.2,9.2s4.14,9.2,9.2,9.2" style="fill:#fff; fill-rule:evenodd; stroke-width:0px;"></path><path d="m1686.8,1058.38h95.36c5.06,0,9.2-4.14,9.2-9.2s-4.14-9.2-9.2-9.2h-95.36c-5.06,0-9.2,4.14-9.2,9.2s4.14,9.2,9.2,9.2" style="fill:#fff; fill-rule:evenodd; stroke-width:0px;"></path><path d="m1829.65,1058.38h95.36c5.06,0,9.2-4.14,9.2-9.2s-4.14-9.2-9.2-9.2h-95.36c-5.06,0-9.2,4.14-9.2,9.2s4.14,9.2,9.2,9.2" style="fill:#fff; fill-rule:evenodd; stroke-width:0px;"></path><path d="m1284.71,1020.51h154.43c5.06,0,9.2-4.14,9.2-9.2s-4.14-9.2-9.2-9.2h-154.43c-5.06,0-9.2,4.14-9.2,9.2s4.14,9.2,9.2,9.2" style="fill:#c5579f; fill-rule:evenodd; stroke-width:0px;"></path><path d="m1491.05,1020.51h241.43c5.06,0,9.2-4.14,9.2-9.2s-4.14-9.2-9.2-9.2h-241.43c-5.06,0-9.2,4.14-9.2,9.2s4.14,9.2,9.2,9.2" style="fill:#eb6502; fill-rule:evenodd; stroke-width:0px;"></path><path d="m1792.17,1020.51h203.67c5.06,0,9.2-4.14,9.2-9.2s-4.14-9.2-9.2-9.2h-203.67c-5.06,0-9.2,4.14-9.2,9.2s4.14,9.2,9.2,9.2" style="fill:#fff; fill-rule:evenodd; stroke-width:0px;"></path><path d="m1284.71,1318.19h351.08c5.06,0,9.2-4.14,9.2-9.2s-4.14-9.2-9.2-9.2h-351.08c-5.06,0-9.2,4.14-9.2,9.2s4.14,9.2,9.2,9.2" style="fill:#fff; fill-rule:evenodd; stroke-width:0px;"></path><path d="m1686.8,1318.19h95.36c5.06,0,9.2-4.14,9.2-9.2s-4.14-9.2-9.2-9.2h-95.36c-5.06,0-9.2,4.14-9.2,9.2s4.14,9.2,9.2,9.2" style="fill:#fff; fill-rule:evenodd; stroke-width:0px;"></path><path d="m1829.65,1318.19h95.36c5.06,0,9.2-4.14,9.2-9.2s-4.14-9.2-9.2-9.2h-95.36c-5.06,0-9.2,4.14-9.2,9.2s4.14,9.2,9.2,9.2" style="fill:#fff; fill-rule:evenodd; stroke-width:0px;"></path><path d="m1284.71,1275.72h154.43c5.06,0,9.2-4.14,9.2-9.2s-4.14-9.2-9.2-9.2h-154.43c-5.06,0-9.2,4.14-9.2,9.2s4.14,9.2,9.2,9.2" style="fill:#fff; fill-rule:evenodd; stroke-width:0px;"></path><path d="m1491.05,1275.72h241.43c5.06,0,9.2-4.14,9.2-9.2s-4.14-9.2-9.2-9.2h-241.43c-5.06,0-9.2,4.14-9.2,9.2s4.14,9.2,9.2,9.2" style="fill:#fff; fill-rule:evenodd; stroke-width:0px;"></path><path d="m1792.17,1275.72h203.67c5.06,0,9.2-4.14,9.2-9.2s-4.14-9.2-9.2-9.2h-203.67c-5.06,0-9.2,4.14-9.2,9.2s4.14,9.2,9.2,9.2" style="fill:#fff; fill-rule:evenodd; stroke-width:0px;"></path><rect x="527.04" y="920.77" width="297.05" height="846.66" style="fill:#031542; stroke-width:0px;"></rect><path d="m1377.42,1358.13h105.79c5.06,0,9.2-4.14,9.2-9.2s-4.14-9.2-9.2-9.2h-105.79c-5.06,0-9.2,4.14-9.2,9.2s4.14,9.2,9.2,9.2" style="fill:#f48120; fill-rule:evenodd; stroke-width:0px;"></path><path d="m1518.06,1358.13h105.79c5.06,0,9.2-4.14,9.2-9.2s-4.14-9.2-9.2-9.2h-105.79c-5.06,0-9.2,4.14-9.2,9.2s4.14,9.2,9.2,9.2" style="fill:#f48120; fill-rule:evenodd; stroke-width:0px;"></path><path d="m1088.66,1230.12h156c5.06,0,9.2-4.14,9.2-9.2s-4.14-9.2-9.2-9.2h-156c-5.06,0-9.2,4.14-9.2,9.2s4.14,9.2,9.2,9.2" style="fill:#fff; fill-rule:evenodd; stroke-width:0px;"></path><path d="m1284.76,1230.12h105.79c5.06,0,9.2-4.14,9.2-9.2s-4.14-9.2-9.2-9.2h-105.79c-5.06,0-9.2,4.14-9.2,9.2s4.14,9.2,9.2,9.2" style="fill:#fff; fill-rule:evenodd; stroke-width:0px;"></path><path d="m1435.91,1230.12h105.79c5.06,0,9.2-4.14,9.2-9.2s-4.14-9.2-9.2-9.2h-105.79c-5.06,0-9.2,4.14-9.2,9.2s4.14,9.2,9.2,9.2" style="fill:#fff; fill-rule:evenodd; stroke-width:0px;"></path><path d="m613.55,1517.6h67.71c4.88,0,8.88-3.99,8.88-8.88h0c0-4.88-4-8.88-8.88-8.88h-67.71c-4.88,0-8.88,3.99-8.88,8.88h0c0,4.88,4,8.88,8.88,8.88" style="fill:#e8f6fd; fill-rule:evenodd; stroke-width:0px;"></path><path d="m573.59,1473.63h176.51c4.88,0,8.88-3.99,8.88-8.88h0c0-4.88-3.99-8.88-8.88-8.88h-176.51c-4.88,0-8.88,3.99-8.88,8.88h0c0,4.88,4,8.88,8.88,8.88" style="fill:#e8f6fd; fill-rule:evenodd; stroke-width:0px;"></path><path d="m573.59,1427.09h134.88c4.88,0,8.88-3.99,8.88-8.88h0c0-4.88-4-8.88-8.88-8.88h-134.88c-4.88,0-8.88,3.99-8.88,8.88h0c0,4.88,4,8.88,8.88,8.88" style="fill:#e8f6fd; fill-rule:evenodd; stroke-width:0px;"></path><path d="m613.55,1380.55h134.62c4.88,0,8.88-3.99,8.88-8.88h0c0-4.88-4-8.88-8.88-8.88h-134.62c-4.88,0-8.88,3.99-8.88,8.88h0c0,4.88,4,8.88,8.88,8.88" style="fill:#e8f6fd; fill-rule:evenodd; stroke-width:0px;"></path><path d="m613.56,1334.01h43.92c4.88,0,8.88-3.99,8.88-8.88h0c0-4.88-4-8.88-8.88-8.88h-43.92c-4.88,0-8.88,3.99-8.88,8.88h0c0,4.88,4,8.88,8.88,8.88" style="fill:#e8f6fd; fill-rule:evenodd; stroke-width:0px;"></path><path d="m573.59,1287.47h128.08c4.88,0,8.88-3.99,8.88-8.88h0c0-4.88-4-8.88-8.88-8.88h-128.08c-4.88,0-8.88,3.99-8.88,8.88h0c0,4.88,4,8.88,8.88,8.88" style="fill:#e8f6fd; fill-rule:evenodd; stroke-width:0px;"></path><path d="m612.8,1240.93h36.18c4.88,0,8.88-3.99,8.88-8.88h0c0-4.88-4-8.88-8.88-8.88h-36.18c-4.88,0-8.88,3.99-8.88,8.88h0c0,4.88,4,8.88,8.88,8.88" style="fill:#e8f6fd; fill-rule:evenodd; stroke-width:0px;"></path><path d="m608.18,1194.39h141.91c4.88,0,8.88-3.99,8.88-8.88h0c0-4.88-4-8.88-8.88-8.88h-141.91c-4.88,0-8.88,3.99-8.88,8.88h0c0,4.88,4,8.88,8.88,8.88" style="fill:#e8f6fd; fill-rule:evenodd; stroke-width:0px;"></path><path d="m573.59,1147.85h113.21c4.88,0,8.88-3.99,8.88-8.88h0c0-4.88-4-8.88-8.88-8.88h-113.21c-4.88,0-8.88,3.99-8.88,8.88h0c0,4.88,4,8.88,8.88,8.88" style="fill:#e8f6fd; fill-rule:evenodd; stroke-width:0px;"></path><path d="m608.18,1101.31h141.91c4.88,0,8.88-3.99,8.88-8.88h0c0-4.88-4-8.88-8.88-8.88h-141.91c-4.88,0-8.88,3.99-8.88,8.88h0c0,4.88,4,8.88,8.88,8.88" style="fill:#e8f6fd; fill-rule:evenodd; stroke-width:0px;"></path><path d="m608.18,1054.76h87.11c4.88,0,8.88-3.99,8.88-8.88h0c0-4.88-4-8.88-8.88-8.88h-87.11c-4.88,0-8.88,3.99-8.88,8.88h0c0,4.88,4,8.88,8.88,8.88" style="fill:#e8f6fd; fill-rule:evenodd; stroke-width:0px;"></path><path d="m573.59,1008.22h63.07c4.88,0,8.88-3.99,8.88-8.88h0c0-4.88-3.99-8.88-8.88-8.88h-63.07c-4.88,0-8.88,3.99-8.88,8.88h0c0,4.88,4,8.88,8.88,8.88" style="fill:#e8f6fd; fill-rule:evenodd; stroke-width:0px;"></path><path d="m613.55,1558.72h67.71c4.88,0,8.88-3.99,8.88-8.88h0c0-4.88-4-8.88-8.88-8.88h-67.71c-4.88,0-8.88,3.99-8.88,8.88h0c0,4.88,4,8.88,8.88,8.88" style="fill:#e8f6fd; fill-rule:evenodd; stroke-width:0px;"></path><path d="m573.59,1599.85h170.62c4.88,0,8.88-3.99,8.88-8.88h0c0-4.88-4-8.88-8.88-8.88h-170.62c-4.88,0-8.88,3.99-8.88,8.88h0c0,4.88,4,8.88,8.88,8.88" style="fill:#e8f6fd; fill-rule:evenodd; stroke-width:0px;"></path><path d="m613.55,1640.97h67.71c4.88,0,8.88-3.99,8.88-8.88h0c0-4.88-4-8.88-8.88-8.88h-67.71c-4.88,0-8.88,3.99-8.88,8.88h0c0,4.88,4,8.88,8.88,8.88" style="fill:#e8f6fd; fill-rule:evenodd; stroke-width:0px;"></path><path d="m1142.15,1058.38h99.76c5.06,0,9.2-4.14,9.2-9.2s-4.14-9.2-9.2-9.2h-99.76c-5.06,0-9.2,4.14-9.2,9.2s4.14,9.2,9.2,9.2" style="fill:#fff; fill-rule:evenodd; stroke-width:0px;"></path><path d="m1042.39,1020.51h196.55c5.06,0,9.2-4.14,9.2-9.2s-4.14-9.2-9.2-9.2h-196.55c-5.06,0-9.2,4.14-9.2,9.2s4.14,9.2,9.2,9.2" style="fill:#fff; fill-rule:evenodd; stroke-width:0px;"></path><path d="m1042.39,973.65h258.34c5.06,0,9.2-4.14,9.2-9.2s-4.14-9.2-9.2-9.2h-258.34c-5.06,0-9.2,4.14-9.2,9.2s4.14,9.2,9.2,9.2" style="fill:#fff; fill-rule:evenodd; stroke-width:0px;"></path><path d="m936.33,973.65h10.99c5.06,0,9.2-4.14,9.2-9.2s-4.14-9.2-9.2-9.2h-10.99c-5.06,0-9.2,4.14-9.2,9.2s4.14,9.2,9.2,9.2" style="fill:#b1cbef; fill-rule:evenodd; stroke-width:0px;"></path><path d="m936.33,1020.51h10.99c5.06,0,9.2-4.14,9.2-9.2s-4.14-9.2-9.2-9.2h-10.99c-5.06,0-9.2,4.14-9.2,9.2s4.14,9.2,9.2,9.2" style="fill:#b1cbef; fill-rule:evenodd; stroke-width:0px;"></path><path d="m934.55,1179.86h9.74c5.06,0,9.2-4.14,9.2-9.2s-4.14-9.2-9.2-9.2h-9.74c-5.06,0-9.2,4.14-9.2,9.2s4.14,9.2,9.2,9.2" style="fill:#b1cbef; fill-rule:evenodd; stroke-width:0px;"></path><path d="m935.14,1139.83h9.16c5.06,0,9.2-4.14,9.2-9.2s-4.14-9.2-9.2-9.2h-9.16c-5.06,0-9.2,4.14-9.2,9.2s4.14,9.2,9.2,9.2" style="fill:#b1cbef; fill-rule:evenodd; stroke-width:0px;"></path><path d="m935.14,1099.8h9.16c5.06,0,9.2-4.14,9.2-9.2s-4.14-9.2-9.2-9.2h-9.16c-5.06,0-9.2,4.14-9.2,9.2s4.14,9.2,9.2,9.2" style="fill:#b1cbef; fill-rule:evenodd; stroke-width:0px;"></path><path d="m935.14,1058.38h9.16c5.06,0,9.2-4.14,9.2-9.2s-4.14-9.2-9.2-9.2h-9.16c-5.06,0-9.2,4.14-9.2,9.2s4.14,9.2,9.2,9.2" style="fill:#b1cbef; fill-rule:evenodd; stroke-width:0px;"></path><path d="m935.7,1318.19h8.59c5.06,0,9.2-4.14,9.2-9.2s-4.14-9.2-9.2-9.2h-8.59c-5.06,0-9.2,4.14-9.2,9.2s4.14,9.2,9.2,9.2" style="fill:#b1cbef; fill-rule:evenodd; stroke-width:0px;"></path><path d="m935.7,1275.72h8.59c5.06,0,9.2-4.14,9.2-9.2s-4.14-9.2-9.2-9.2h-8.59c-5.06,0-9.2,4.14-9.2,9.2s4.14,9.2,9.2,9.2" style="fill:#b1cbef; fill-rule:evenodd; stroke-width:0px;"></path><path d="m935.76,1230.12h8.53c5.06,0,9.2-4.14,9.2-9.2s-4.14-9.2-9.2-9.2h-8.53c-5.06,0-9.2,4.14-9.2,9.2s4.14,9.2,9.2,9.2" style="fill:#b1cbef; fill-rule:evenodd; stroke-width:0px;"></path><path d="m938.73,1478.22h5.56c5.06,0,9.2-4.14,9.2-9.2s-4.14-9.2-9.2-9.2h-5.56c-5.06,0-9.2,4.14-9.2,9.2s4.14,9.2,9.2,9.2" style="fill:#b1cbef; fill-rule:evenodd; stroke-width:0px;"></path><path d="m935.7,1438.19h8.59c5.06,0,9.2-4.14,9.2-9.2s-4.14-9.2-9.2-9.2h-8.59c-5.06,0-9.2,4.14-9.2,9.2s4.14,9.2,9.2,9.2" style="fill:#b1cbef; fill-rule:evenodd; stroke-width:0px;"></path><path d="m936.31,1398.16h7.98c5.06,0,9.2-4.14,9.2-9.2s-4.14-9.2-9.2-9.2h-7.98c-5.06,0-9.2,4.14-9.2,9.2s4.14,9.2,9.2,9.2" style="fill:#b1cbef; fill-rule:evenodd; stroke-width:0px;"></path><path d="m936.31,1358.13h7.98c5.06,0,9.2-4.14,9.2-9.2s-4.14-9.2-9.2-9.2h-7.98c-5.06,0-9.2,4.14-9.2,9.2s4.14,9.2,9.2,9.2" style="fill:#b1cbef; fill-rule:evenodd; stroke-width:0px;"></path><path d="m939.77,1692.1h4.52c5.06,0,9.2-4.14,9.2-9.2s-4.14-9.2-9.2-9.2h-4.52c-5.06,0-9.2,4.14-9.2,9.2s4.14,9.2,9.2,9.2" style="fill:#b1cbef; fill-rule:evenodd; stroke-width:0px;"></path><path d="m939.77,1652.07h4.52c5.06,0,9.2-4.14,9.2-9.2s-4.14-9.2-9.2-9.2h-4.52c-5.06,0-9.2,4.14-9.2,9.2s4.14,9.2,9.2,9.2" style="fill:#b1cbef; fill-rule:evenodd; stroke-width:0px;"></path><path d="m939.4,1612.04h4.89c5.06,0,9.2-4.14,9.2-9.2s-4.14-9.2-9.2-9.2h-4.89c-5.06,0-9.2,4.14-9.2,9.2s4.14,9.2,9.2,9.2" style="fill:#b1cbef; fill-rule:evenodd; stroke-width:0px;"></path><path d="m938.73,1572.01h5.56c5.06,0,9.2-4.14,9.2-9.2s-4.14-9.2-9.2-9.2h-5.56c-5.06,0-9.2,4.14-9.2,9.2s4.14,9.2,9.2,9.2" style="fill:#b1cbef; fill-rule:evenodd; stroke-width:0px;"></path><path d="m938.73,1531.71h5.56c5.06,0,9.2-4.14,9.2-9.2s-4.14-9.2-9.2-9.2h-5.56c-5.06,0-9.2,4.14-9.2,9.2s4.14,9.2,9.2,9.2" style="fill:#b1cbef; fill-rule:evenodd; stroke-width:0px;"></path><path d="m2613.18,1488.15c19.41,85.18,128.28,283.46,128.98,381.1.72,101.34-6.76,163.85-13.12,260.22-1.15,17.39,1.75,38.69,20.5,48.91,17.14,9.37,51.37,17.04,61.51,26.74,7.31,6.99,35.29,46.59-64.86,43.96-71.15-1.87-88.1-6.83-95.72-18.37-.59-.89-21.25-153.11-30.11-309.16-3.21-56.6-137.97-241.07-147.33-256.57-6.2,27.67-92.14,251.55-168.97,326.39-112.43,109.51-221.53,193.36-221.51,193.5,1.18,8.57-5.16,15.2,7.52,29.36,3.88,13.89,13.17,38.32-55.81,37.72-68.98-.59-49.76-46.86-50-51.07,12.69-87.89,116.64-190.03,216.74-283.71,67.14-62.83,79.89-347.96,87.05-442.7.01,0,91.77-1.31,141.81-29.57,76.03-42.95,123-217.69,108.79-37.85-2.66,33.71,62.69,34.63,74.54,81.11" style="fill:#355298; fill-rule:evenodd; stroke-width:0px;"></path><path d="m2486.44,1120.65c27.22,50.47,72.77,99.06,105.52,160.34,23.24,43.47,118.42-36.77,142.5-28.2,19.88,7.07,44.19-38.82,43.06-72.17,4.91-11.97-108.05,63.45-125.62,17.02-39.22-103.62-89.55-175.14-155.85-189.82-7.49-4.27-32.5,82.11-9.6,112.84" style="fill:#7183d5; fill-rule:evenodd; stroke-width:0px;"></path><path d="m2254.3,1229.66c14.71,64.77,26.8,231.45,26.72,343.16,135.31,15.73,274.5-.03,353.17-29.88-8.56-88.26-5.52-514.15-138.15-535.13-90.04-20.03-208.55-5.7-255.04,45.42-67.55,53.66-137.35,179.59-170.95,258.48-31.24,73.37-39.42,167.3-38.61,177.77,2.5,32.51,32.06,34.45,47.91,26.81,17.86-8.61,17.88-83.42,71.56-167.04,29.84-46.48,81.84-94,103.39-119.59" style="fill:#8c9ef3; fill-rule:evenodd; stroke-width:0px;"></path><path d="m2254.3,1229.66c14.06,65.91,23.94,207.45,26,291.02,30.4-89.05,7.1-290.73-1.63-325.49-11.09,17.89-16.07,14.34-24.37,34.47" style="fill:#7183d5; fill-rule:evenodd; stroke-width:0px;"></path><path d="m2467.3,934.05c-8.4,19.28-20.82,34.46-35.16,42.32l1.99,27.24,4.16,3.16c16.44,15.8,1.48,50.9-16.27,50.81-44.62,4.64-80.97-30.18-68.6-50.83l5.49-6.83-.81-38.66c-2.32,0-19.64-8.64-24.72-9.9-5.08-1.27-12.95-10.5-13.99-20.65-1.04-10.15,14.86-7.71,14.86-7.71-20.46-25.03-43.19-45.14-16.5-70.13,26.68-24.99,90.17-42.18,90.17-42.18l37.93-15.5c-4.19,13.61,4.8,57.75,16.24,85,10.25,24.44,16.51,27.99,5.23,53.87" style="fill:#f7aaac; fill-rule:evenodd; stroke-width:0px;"></path><path d="m2376.59,965.62s23.91,36.31,42.05,38.73c18.14,2.42,8.83.41,15.48-.75l-1.99-27.24c-12.27,2.66-24.43,2.34-55.54-10.74" style="fill:#ea8287; fill-rule:evenodd; stroke-width:0px;"></path><path d="m2442.18,853.23c-31.25,18.22-69.32.7-86.84,23.76-8.68,11.42-6.89,27.11,4.82,50.86,3.45,7,7.82,12.05-4.58,7.1-5.69-2.27-15.03-5.37-18.02-2.67-6.65,5.99-2.5,17.61,3.26,21.12,2.57,1.56,7.39,3.84,7.39,3.84-43.68-5.84-63.81-43.87-64.91-75.31-.37-10.66.3-20.19,1.86-28.72-1.05-2.85-1.69-5.91-1.87-9.11-.74-13.64,7.32-25.62,19.01-29.89,1.44-14.36,12.62-25.87,26.82-26.64,4.27-.23,8.38.53,12.12,2.1l1.41-.45c4.71-9.2,14.11-15.73,25.27-16.33,7.82-.43,15.1,2.14,20.71,6.68,7.3-11.14,18.83-18.62,32.16-19.34,23.73-1.29,44.13,19.29,45.58,45.96.91,16.69-5.83,31.82-16.81,41.12-2.2,2.15-4.65,4.14-7.38,5.92" style="fill:#355298; fill-rule:evenodd; stroke-width:0px;"></path><path d="m2080.72,1508.17l-.57,4.24,9.88,43.12c2.44,4.74,11.47,36.02.59,28.15-7.64-5.53-20.67-23.11-21.45-22.62-10.31,6.38-23.16,66.15-24.08,66.78-12.99,8.88-7.06-29.54-6.34-36.1.19-1.72-9.98,25.54-11.15,24.38-1.42-1.4-5.33-4.95-4.36-12.18,1.18-8.85,5.65-23.67,4.3-25.35-1.41-1.75-11.07,24.77-12.25,23.04-.92-1.33-2.88-3.99-1.98-9.52,1.47-9.14,6.48-22.58,5.47-24.75-1.03-2.23-6.82,17.16-7.59,15.04-.6-1.66-3.66-1.94-3.52-3.65,3.64-45.84,15.71-34.74,27.87-78.35,5.52-24.17,44.61-1.49,45.19,7.78" style="fill:#f7aaac; fill-rule:evenodd; stroke-width:0px;"></path><g style="clip-path:url(#uuid-d6dc7759-50f7-461c-80b4-7a766b90f3d8);"><rect x="2575.56" y="860.07" width="482.78" height="649.22" style="fill:url(#uuid-fd0ba693-6b61-4277-b7cf-87c6df30b019); stroke-width:0px;"></rect></g><path d="m2841.72,1509.16c-5.51-4.25-35.96-26.2-41.29-30.81-121.57-104.84-198.39-298.6-186.42-478.1l2.95-44.24,36.31-6.9c63.71-12.11,110.53-35.33,166.5-73.44l22.92-15.61,22.92,15.61c56.27,38.32,102.96,60.64,166.92,73.52l35.92,7.23,2.92,43.83c12.5,187.39-71.77,390.31-202.7,491.39l-26.96,17.51Z" style="fill:#f4d81e; fill-rule:evenodd; stroke-width:0px;"></path><g style="clip-path:url(#uuid-3a410406-401c-47c4-a54d-ed28b6c6527e);"><rect x="2685.49" y="939.02" width="334.84" height="500.04" style="fill:url(#uuid-e885f993-f176-44ac-a2d0-fd81e9598648); stroke-width:0px;"></rect></g><g style="clip-path:url(#uuid-3074fdf1-79bf-41bb-9a70-26228f7e6d77);"><rect x="2685.49" y="939.02" width="167.41" height="500.04" style="fill:url(#uuid-a506718b-20f8-4a13-bbd7-7145a143d45c); stroke-width:0px;"></rect></g><g style="clip-path:url(#uuid-dda4f556-4efb-4a2a-bb1b-8567198074e1);"><rect x="2852.9" y="961.53" width="150.37" height="453.49" style="fill:url(#uuid-5922aca8-2090-4b28-8682-9b3112d050d1); stroke-width:0px;"></rect></g><path d="m2783.12,1080.09c17.86-17.86,42.53-28.9,69.78-28.9s51.92,11.05,69.78,28.9c17.86,17.86,28.9,42.53,28.9,69.78s-11.05,51.92-28.9,69.78c-17.86,17.86-42.53,28.9-69.78,28.9s-51.92-11.05-69.78-28.9c-17.86-17.86-28.9-42.53-28.9-69.78s11.05-51.92,28.9-69.78m69.78-21.89c-25.31,0-48.23,10.26-64.82,26.85-16.59,16.59-26.85,39.5-26.85,64.82s10.26,48.23,26.85,64.82c16.59,16.59,39.5,26.85,64.82,26.85s48.23-10.26,64.82-26.85c16.59-16.59,26.85-39.5,26.85-64.82s-10.26-48.23-26.85-64.82c-16.59-16.59-39.5-26.85-64.82-26.85Z" style="fill:#fff; stroke-width:0px;"></path><path d="m2838.81,1162.63l49.71-46.14c5.05-4.69,12.98-4.41,17.68.64,4.7,5.05,4.42,12.99-.64,17.69l-59.25,54.99-.18.15c-5.17,4.53-13.11,3.99-17.64-1.17l-24.51-27.94c-4.53-5.17-4-13.12,1.17-17.65,5.17-4.53,13.11-3.99,17.64,1.17l16.01,18.26Z" style="fill:#fff; fill-rule:evenodd; stroke-width:0px;"></path><path d="m329.39,1850.11h253.16v.41c32.65,3.61,58.24,31,58.24,63.98v231.79c0,35.42-29.5,64.39-65.56,64.39h-291.73c-36.06,0-65.56-28.97-65.56-64.39v-231.79c0-31.87,23.89-58.51,54.95-63.53l4.61-.85h51.89Z" style="fill:#7183d5; fill-rule:evenodd; stroke-width:0px;"></path><path d="m548.15,1835.86v-150.53c.07-1.43.11-2.86.11-4.31s-.04-2.88-.11-4.3v-.16h0c-2.38-50.16-44.68-90.11-96.52-90.11s-94.2,38.87-96.63,90.11v159.29h-55.48v-160.61l.06-1.31c3.83-80.81,71.72-142.96,152.05-142.96s148.11,62.24,151.94,142.96v.23c.11,2.28.17,4.57.17,6.86,0,1.82-.04,3.63-.11,5.45v149.38h-55.48Z" style="fill:#7183d5; fill-rule:evenodd; stroke-width:0px;"></path><path d="m604.9,1835.86h-58.1c-1.99,0-3.62,1.63-3.62,3.62v13.87c0,1.99,1.63,3.62,3.62,3.62h58.1c1.99,0,3.62-1.63,3.62-3.62v-13.87c0-1.99-1.63-3.62-3.62-3.62" style="fill:#7183d5; fill-rule:evenodd; stroke-width:0px;"></path><path d="m356.21,1835.86h-58.1c-1.99,0-3.62,1.63-3.62,3.62v13.87c0,1.99,1.63,3.62,3.62,3.62h58.1c1.99,0,3.62-1.63,3.62-3.62v-13.87c0-1.99-1.63-3.62-3.62-3.62" style="fill:#7183d5; fill-rule:evenodd; stroke-width:0px;"></path><path d="m369.95,1850.11h253.16v.41c32.64,3.61,58.24,31,58.24,63.98v231.79c0,35.42-29.5,64.39-65.56,64.39h-291.73c-36.06,0-65.56-28.97-65.56-64.39v-231.79c0-31.87,23.89-58.51,54.95-63.53l4.74-.85h51.76Z" style="fill:#8c9ef3; fill-rule:evenodd; stroke-width:0px;"></path><path d="m382.89,1873.45h220.4v.36c28.42,3.14,50.7,26.99,50.7,55.7v201.79c0,30.83-25.68,56.05-57.08,56.05h-253.97c-31.39,0-57.07-25.22-57.07-56.05v-201.79c0-27.74,20.8-50.94,47.84-55.31v-.74h49.18Z" style="fill:#aec2fd; fill-rule:evenodd; stroke-width:0px;"></path><path d="m414.75,1990.48c0-26.96,21.85-48.81,48.81-48.81,1.93,0,3.83.11,5.71.33,24.27,2.82,43.11,23.45,43.11,48.48,0,18.74-10.57,35.02-26.07,43.2v80.67c-3.66,6.58-10.05,10.25-17.03,11.36-10.6,1.68-22.56-2.52-28.44-11.36v-80.67c-15.5-8.18-26.07-24.45-26.07-43.2" style="fill:#fff; fill-rule:evenodd; stroke-width:0px;"></path></g></svg>